<svg width="134" height="48" viewBox="0 0 134 48" fill="none" xmlns="http://www.w3.org/2000/svg">
<path d="M42.7195 8H21.4606C19.8843 8 18.6567 9.28335 18.6567 10.7759V37.2241C18.6567 38.7167 19.8843 40 21.4606 40H42.7195C44.2958 40 45.5233 38.7167 45.5233 37.2241V10.7899C45.5233 9.2973 44.2958 8.01395 42.7195 8.01395M38.3673 34.7271H36.8189C36.4981 34.7271 36.1493 34.4621 36.1493 34.1412C36.1493 34.1412 35.7448 25.8134 35.7448 25.2554C35.6471 26.0506 33.2199 34.1691 33.2199 34.1691C33.1502 34.476 32.8015 34.6853 32.4806 34.6853H31.6716C31.3507 34.6853 31.002 34.476 30.9322 34.1691C30.9322 34.1691 28.5469 26.0366 28.4213 25.2554C28.4213 25.6739 28.0029 34.1412 28.0029 34.1412C27.975 34.4481 27.6402 34.7271 27.3333 34.7271H25.8128C25.492 34.7271 25.2827 34.4621 25.3106 34.1412L26.4405 21.1962C26.4545 20.8893 26.8032 20.6103 27.1101 20.6103H28.9096C29.2304 20.6103 29.5791 20.8195 29.6489 21.1264C29.6489 21.1264 32.0482 29.5798 32.1179 30.3191C32.1737 29.6077 34.587 21.1264 34.587 21.1264C34.6567 20.8195 35.0055 20.6103 35.3263 20.6103H37.1118C37.4187 20.6103 37.7675 20.8753 37.7814 21.1962L38.8974 34.1412C38.9113 34.4481 38.7021 34.7271 38.3952 34.7271M39.3437 17.7088C38.9811 18.3226 38.1301 18.4621 37.4606 18.0854L33.5547 15.8256L32.1179 15.0026L28.8677 16.8579L26.7195 18.0994C26.0499 18.476 25.2269 18.2947 24.8782 17.6809C24.5155 17.0671 24.7666 16.272 25.4362 15.8814L29.356 13.6495L31.4344 12.4638C31.4623 12.4499 31.4902 12.4359 31.5181 12.422C31.56 12.408 31.6018 12.3801 31.6437 12.3662C31.6716 12.3662 31.6995 12.3522 31.7274 12.3383C31.7832 12.3243 31.8529 12.2964 31.9227 12.2964C31.9366 12.2964 31.9645 12.2964 31.9784 12.2964C32.0482 12.2964 32.104 12.2964 32.1737 12.2964C32.2435 12.2964 32.2295 12.2964 32.2574 12.2964C32.3132 12.2964 32.369 12.2964 32.4248 12.3243C32.4667 12.3243 32.4946 12.3243 32.5225 12.3522C32.5783 12.3522 32.6201 12.3801 32.6759 12.408C32.7038 12.408 32.7317 12.4359 32.7596 12.4499C32.7875 12.4638 32.8294 12.4778 32.8573 12.4917L36.6515 14.6818L38.7858 15.9093C39.4553 16.2999 39.7064 17.095 39.3437 17.7088Z" fill="#1FC27A"/>
<path d="M53.6561 21.7961H52.9726C52.7215 21.7961 52.4983 21.5868 52.4983 21.3497V12.7289C52.4983 12.4778 52.7075 12.2546 52.9726 12.2546H53.6561C53.8932 12.2546 54.1164 12.4639 54.1164 12.7289V21.3497C54.1164 21.5868 53.9072 21.7961 53.6561 21.7961Z" fill="black"/>
<path d="M60.2541 21.7959C59.8496 21.7959 59.6822 21.6285 59.6822 21.224V17.2763C59.6822 16.6346 59.4172 16.2162 58.7476 16.2162C58.078 16.2162 57.6735 16.7044 57.6735 17.5135V21.2101C57.6735 21.6146 57.5061 21.782 57.1016 21.782H56.6691C56.2506 21.782 56.0833 21.6146 56.0833 21.2101V15.4768C56.0833 15.0863 56.2506 14.9189 56.6691 14.9189H56.7389C57.1016 14.9189 57.3108 15.0584 57.4363 15.421L57.4642 15.5047C57.8688 15.0723 58.4268 14.8491 59.1103 14.8491C60.6029 14.8491 61.2585 15.5884 61.2585 17.1229V21.238C61.2585 21.6425 61.0911 21.8099 60.6866 21.8099H60.2541V21.7959Z" fill="black"/>
<path d="M66.1544 21.266C66.1544 21.6566 65.987 21.824 65.5824 21.824H65.1221C63.8387 21.824 63.3226 21.3218 63.3226 20.0105V16.3H62.932C62.5275 16.3 62.3601 16.1326 62.3601 15.7141V15.5607C62.3601 15.1561 62.5275 14.9887 62.932 14.9887H63.3505L63.5598 13.8867C63.6435 13.524 63.8387 13.3706 64.2154 13.3706H64.2991C64.7036 13.3706 64.871 13.538 64.871 13.9286V14.9887H65.5545C65.9591 14.9887 66.1265 15.1561 66.1265 15.5607V15.7141C66.1265 16.1186 65.9591 16.3 65.5545 16.3H64.871V19.9687C64.871 20.3453 64.9966 20.443 65.2755 20.443H65.5685C65.973 20.443 66.1404 20.6104 66.1404 21.0009V21.2381L66.1544 21.266Z" fill="black"/>
<path d="M78.1511 21.7959C77.7466 21.7959 77.5792 21.6285 77.5792 21.224V17.2763C77.5792 16.6346 77.3002 16.2162 76.6446 16.2162C75.989 16.2162 75.5565 16.7044 75.5565 17.5135V21.2101C75.5565 21.6146 75.3891 21.782 74.9846 21.782H74.5522C74.1337 21.782 73.9663 21.6146 73.9663 21.2101V15.4768C73.9663 15.0863 74.1337 14.9189 74.5522 14.9189H74.6219C74.9846 14.9189 75.1939 15.0584 75.3194 15.421L75.3473 15.5047C75.7518 15.0723 76.3238 14.8491 76.9933 14.8491C78.4859 14.8491 79.1415 15.5884 79.1415 17.1229V21.238C79.1415 21.6425 78.9742 21.8099 78.5696 21.8099H78.1372L78.1511 21.7959Z" fill="black"/>
<path d="M83.2707 16.1045C82.2524 16.1045 82.1827 17.2205 82.1827 18.3364C82.1827 19.9127 82.5314 20.4986 83.2568 20.4986C83.9822 20.4986 84.4285 19.8151 84.4285 18.3504C84.4285 16.8857 83.9822 16.1045 83.2707 16.1045ZM84.3727 12.2963C84.3727 11.8918 84.5401 11.7104 84.9447 11.7104H85.3771C85.7677 11.7104 85.949 11.8778 85.949 12.2963V21.224C85.949 21.6145 85.7816 21.7819 85.3771 21.7819H85.3074C84.9447 21.7819 84.7215 21.6285 84.6099 21.2937C84.568 21.1821 84.6099 21.2937 84.568 21.1961C84.1496 21.6564 83.6334 21.8656 82.922 21.8656C81.4434 21.8656 80.5227 20.8334 80.5227 18.3225C80.5227 15.8116 80.983 14.7654 82.9639 14.7654C83.8008 14.7654 84.038 14.9467 84.3867 15.2815V12.3103L84.3727 12.2963Z" fill="black"/>
<path d="M99.6609 29.0078C98.6426 29.0078 98.5728 30.1238 98.5728 31.2398C98.5728 32.816 98.9216 33.4019 99.6469 33.4019C100.372 33.4019 100.819 32.7184 100.819 31.2537C100.819 29.789 100.372 29.0078 99.6609 29.0078ZM100.763 25.1996C100.763 24.7951 100.93 24.6138 101.335 24.6138H101.767C102.158 24.6138 102.339 24.7812 102.339 25.1996V34.1273C102.339 34.5179 102.172 34.6853 101.767 34.6853H101.697C101.335 34.6853 101.112 34.5318 101 34.197C100.958 34.0854 101 34.197 100.958 34.0994C100.54 34.5597 100.024 34.769 99.3121 34.769C97.8335 34.769 96.9128 33.7367 96.9128 31.2258C96.9128 28.7149 97.3732 27.6687 99.354 27.6687C100.191 27.6687 100.428 27.85 100.777 28.1848V25.2136L100.763 25.1996Z" fill="black"/>
<path d="M91.2357 17.6251C91.2218 16.7742 91.0962 16.1465 90.2174 16.1465C89.3386 16.1465 89.0875 16.4533 89.0596 17.6251H91.2357ZM92.254 18.9503H89.0457C89.0875 19.857 89.4502 20.4568 90.5243 20.4568C91.1241 20.4568 91.3055 20.3313 91.4868 20.2336C91.6123 20.1499 91.7239 20.1081 91.8634 20.1081C92.0029 20.1081 92.1145 20.1499 92.268 20.2894L92.4772 20.4847C92.6028 20.6242 92.6725 20.7498 92.6725 20.8893C92.6725 21.0288 92.6028 21.1682 92.4493 21.2798C92.2261 21.4472 91.5984 21.8657 90.4545 21.8657C88.2505 21.8657 87.4136 20.7219 87.4136 18.3086C87.4136 15.8954 88.0831 14.8352 90.1756 14.8352C92.268 14.8352 92.826 15.728 92.826 18.3784C92.826 18.8247 92.6586 18.9503 92.254 18.9503Z" fill="black"/>
<path d="M71.0228 17.6251C71.0089 16.7742 70.8833 16.1465 70.0045 16.1465C69.1257 16.1465 68.8746 16.4533 68.8467 17.6251H71.0228ZM72.0411 18.9503H68.8328C68.8746 19.857 69.2373 20.4568 70.3114 20.4568C70.9112 20.4568 71.0926 20.3313 71.2739 20.2336C71.3995 20.1499 71.5111 20.1081 71.6505 20.1081C71.79 20.1081 71.9016 20.1499 72.0551 20.2894L72.2643 20.4847C72.3899 20.6242 72.4596 20.7498 72.4596 20.8893C72.4596 21.0288 72.3899 21.1682 72.2364 21.2798C72.0132 21.4472 71.3855 21.8657 70.2417 21.8657C68.0376 21.8657 67.2007 20.7219 67.2007 18.3086C67.2007 15.8954 67.8703 14.8352 69.9627 14.8352C72.0551 14.8352 72.6131 15.728 72.6131 18.3784C72.6131 18.8247 72.4457 18.9503 72.0411 18.9503Z" fill="black"/>
<path d="M84.6935 30.6119C84.6795 29.761 84.554 29.1333 83.6752 29.1333C82.7964 29.1333 82.5453 29.4402 82.5174 30.6119H84.6935ZM85.7118 31.9371H82.5034C82.5453 32.8438 82.908 33.4436 83.9821 33.4436C84.5819 33.4436 84.7632 33.3181 84.9446 33.2205C85.0701 33.1368 85.1817 33.0949 85.3212 33.0949C85.4607 33.0949 85.5723 33.1368 85.7257 33.2763L85.935 33.4715C86.0605 33.611 86.1303 33.7366 86.1303 33.8761C86.1303 34.0156 86.0605 34.1551 85.9071 34.2667C85.6839 34.4341 85.0562 34.8525 83.9123 34.8525C81.7083 34.8525 80.8713 33.7087 80.8713 31.2954C80.8713 28.8822 81.5409 27.822 83.6333 27.822C85.7257 27.822 86.2837 28.7148 86.2837 31.3652C86.2837 31.8116 86.1163 31.9371 85.7118 31.9371Z" fill="black"/>
<path d="M107.57 30.6119C107.556 29.761 107.431 29.1333 106.552 29.1333C105.673 29.1333 105.422 29.4402 105.394 30.6119H107.57ZM108.589 31.9371H105.38C105.422 32.8438 105.785 33.4436 106.859 33.4436C107.459 33.4436 107.64 33.3181 107.822 33.2205C107.947 33.1368 108.059 33.0949 108.198 33.0949C108.338 33.0949 108.449 33.1368 108.603 33.2763L108.812 33.4715C108.937 33.611 109.007 33.7366 109.007 33.8761C109.007 34.0156 108.937 34.1551 108.784 34.2667C108.561 34.4341 107.933 34.8525 106.789 34.8525C104.585 34.8525 103.748 33.7087 103.748 31.2954C103.748 28.8822 104.418 27.822 106.51 27.822C108.603 27.822 109.161 28.7148 109.161 31.3652C109.161 31.8116 108.993 31.9371 108.589 31.9371Z" fill="black"/>
<path d="M98.4058 21.7959C98.0012 21.7959 97.8338 21.6285 97.8338 21.224V17.2763C97.8338 16.6346 97.5688 16.2162 96.8992 16.2162C96.2297 16.2162 95.8112 16.7044 95.8112 17.5135V21.2101C95.8112 21.6146 95.6438 21.782 95.2393 21.782H94.8068C94.3883 21.782 94.2209 21.6146 94.2209 21.2101V15.4768C94.2209 15.0863 94.3883 14.9189 94.8068 14.9189H94.8766C95.2393 14.9189 95.4485 15.0584 95.574 15.421L95.6019 15.5047C96.0065 15.0723 96.5645 14.8491 97.248 14.8491C98.7406 14.8491 99.3962 15.5884 99.3962 17.1229V21.238C99.3962 21.6425 99.2288 21.8099 98.8243 21.8099H98.3918L98.4058 21.7959Z" fill="black"/>
<path d="M105.255 15.2817C105.408 15.3932 105.492 15.5327 105.492 15.6862C105.492 15.8396 105.408 15.9652 105.283 16.0907L105.115 16.2581C104.962 16.3976 104.836 16.4674 104.697 16.4674C104.557 16.4674 104.474 16.4255 104.32 16.3558C104.167 16.2721 103.957 16.2023 103.679 16.2023C102.73 16.2023 102.367 16.9695 102.367 18.2668C102.367 19.5641 102.702 20.4011 103.776 20.4011C104.101 20.4011 104.25 20.3453 104.418 20.2616C104.557 20.1779 104.683 20.1361 104.794 20.1361C104.906 20.1361 105.046 20.1919 105.199 20.3313L105.38 20.4987C105.506 20.6382 105.59 20.7638 105.59 20.9172C105.59 21.0707 105.52 21.1962 105.366 21.3078C105.171 21.4752 104.641 21.8379 103.637 21.8379C101.642 21.8379 100.707 20.6103 100.707 18.2529C100.707 15.8954 101.6 14.8074 103.665 14.8074C104.376 14.8074 104.995 15.0949 105.232 15.2623" fill="black"/>
<path d="M106.998 15.407C106.998 15.0165 107.166 14.8351 107.57 14.8351H107.989C108.393 14.8351 108.561 15.0025 108.561 15.407V21.224C108.561 21.6145 108.393 21.7959 107.989 21.7959H107.57C107.166 21.7959 106.998 21.6285 106.998 21.224V15.407ZM106.957 12.2963C106.957 11.8918 107.124 11.7104 107.528 11.7104H108.031C108.435 11.7104 108.603 11.8778 108.603 12.2963V13.0914C108.603 13.5099 108.435 13.6773 108.031 13.6773H107.528C107.124 13.6773 106.957 13.5099 106.957 13.0914V12.2963Z" fill="black"/>
<path d="M113.625 18.9502H112.899C112.132 18.9502 111.574 19.1176 111.574 19.7593C111.574 20.401 111.937 20.5684 112.355 20.5684C113.15 20.5684 113.625 19.9685 113.625 19.5361V18.9502ZM113.778 21.1961C113.332 21.6983 112.732 21.8796 112.021 21.8796C110.807 21.8796 109.97 21.0845 109.97 19.7593C109.97 18.4341 111.086 17.6948 112.551 17.6948H113.541C113.583 17.6948 113.611 17.6948 113.611 17.6529V17.2484C113.611 16.4672 113.262 16.258 112.369 16.258C111.477 16.258 111.449 16.4114 111.267 16.4812C111.156 16.523 111.058 16.5509 110.946 16.5509C110.765 16.5509 110.626 16.4393 110.5 16.2301L110.402 16.0208C110.333 15.9092 110.291 15.7976 110.291 15.6861C110.291 15.4908 110.388 15.3513 110.612 15.2397C110.974 15.0723 111.602 14.863 112.481 14.863C114.294 14.863 115.145 15.3513 115.145 17.2065V21.2519C115.145 21.6564 114.978 21.8378 114.559 21.8378H114.49C114.141 21.8378 113.918 21.6843 113.792 21.3495L113.75 21.2379L113.778 21.1961Z" fill="black"/>
<path d="M65.7081 29.1334C64.7176 29.1334 64.4387 29.789 64.4387 31.2677C64.4387 32.7463 64.6897 33.4298 65.7081 33.4298C66.7264 33.4298 66.9914 32.7882 66.9914 31.2677C66.9914 29.7472 66.6845 29.1334 65.7081 29.1334ZM65.7081 34.7969C63.5459 34.7969 62.8345 33.4856 62.8345 31.2677C62.8345 29.0497 63.5598 27.7664 65.7081 27.7664C67.8563 27.7664 68.5816 29.0916 68.5816 31.2677C68.5816 33.4438 67.8423 34.7969 65.7081 34.7969Z" fill="black"/>
<path d="M74.1756 34.7271C73.7711 34.7271 73.6037 34.5597 73.6037 34.1552V30.2075C73.6037 29.5658 73.3247 29.1474 72.6551 29.1474C71.9855 29.1474 71.567 29.6356 71.567 30.4446V34.1412C71.567 34.5458 71.3997 34.7132 70.9951 34.7132H70.5627C70.1442 34.7132 69.9768 34.5458 69.9768 34.1412V28.408C69.9768 28.0174 70.1442 27.8501 70.5627 27.8501H70.6324C70.9812 27.8501 71.2044 27.9895 71.3299 28.3522L71.3578 28.4359C71.7623 28.0035 72.3203 27.7664 73.0038 27.7664C74.4964 27.7664 75.152 28.5057 75.152 30.0401V34.1552C75.152 34.5597 74.9847 34.7271 74.5801 34.7271H74.1477H74.1756Z" fill="black"/>
<path d="M79.9087 34.1969C79.9087 34.5875 79.7414 34.7549 79.3368 34.7549H78.8765C77.5931 34.7549 77.077 34.2527 77.077 32.9415V29.2309H76.6864C76.2958 29.2309 76.1145 29.0635 76.1145 28.6451V28.4916C76.1145 28.0871 76.2819 27.9057 76.6864 27.9057H77.091L77.3002 26.8037C77.3839 26.441 77.5792 26.2876 77.9558 26.2876H78.0395C78.4441 26.2876 78.6114 26.455 78.6114 26.8595V27.9197H79.295C79.6995 27.9197 79.8669 28.0871 79.8669 28.5056V28.659C79.8669 29.0635 79.6995 29.2449 79.295 29.2449H78.6114V32.9136C78.6114 33.2902 78.737 33.3879 79.016 33.3879H79.3089C79.7135 33.3879 79.8808 33.5553 79.8808 33.9458V34.183L79.9087 34.1969Z" fill="black"/>
<path d="M89.8406 33.402L89.994 33.3322L91.2355 28.3662C91.3332 28.0035 91.5285 27.8501 91.9051 27.8501H92.4631C92.7839 27.8501 92.9513 27.9756 92.9513 28.2407C92.9513 28.5057 92.9513 28.3802 92.9095 28.4499H92.9234L91.1797 34.211C91.096 34.5458 90.8868 34.7272 90.5102 34.7272H89.3384C88.9618 34.7272 88.7386 34.5598 88.6549 34.1971L86.9112 28.4499C86.8833 28.3802 86.8833 28.3104 86.8833 28.2546C86.8833 27.9756 87.0228 27.8501 87.3715 27.8501H87.9295C88.3061 27.8501 88.5014 28.0175 88.5991 28.3662L89.8406 33.402Z" fill="black"/>
<path d="M93.9557 28.3382C93.9557 27.9476 94.1231 27.7802 94.5276 27.7802H94.9461C95.3367 27.7802 95.518 27.9476 95.518 28.3382V34.1551C95.518 34.5457 95.3506 34.7131 94.9461 34.7131H94.5276C94.1231 34.7131 93.9557 34.5457 93.9557 34.1551V28.3382ZM93.8999 25.2274C93.8999 24.8229 94.0673 24.6555 94.4718 24.6555H94.974C95.3785 24.6555 95.5459 24.8229 95.5459 25.2274V26.0226C95.5459 26.441 95.3785 26.6084 94.974 26.6084H94.4718C94.0673 26.6084 93.8999 26.441 93.8999 26.0226V25.2274Z" fill="black"/>
<path d="M113.137 29.1334C112.146 29.1334 111.867 29.789 111.867 31.2677C111.867 32.7463 112.118 33.4298 113.137 33.4298C114.155 33.4298 114.42 32.7882 114.42 31.2677C114.42 29.7472 114.113 29.1334 113.137 29.1334ZM113.137 34.7969C110.974 34.7969 110.263 33.4856 110.263 31.2677C110.263 29.0497 110.988 27.7664 113.137 27.7664C115.285 27.7664 116.01 29.0916 116.01 31.2677C116.01 33.4438 115.271 34.7969 113.137 34.7969Z" fill="black"/>
<path d="M61.7466 34.1552V34.211C61.7466 34.5737 61.5931 34.7271 61.2026 34.7271H60.6446C60.254 34.7271 60.0866 34.5597 60.0587 34.1692L59.8355 28.143L57.9942 34.225C57.8826 34.5737 57.6734 34.7271 57.2967 34.7271H56.934C56.5713 34.7271 56.3482 34.5737 56.2366 34.225L54.4092 28.1709L54.1302 34.1692C54.1023 34.5597 53.9349 34.7271 53.5443 34.7271H53.0142C52.6376 34.7271 52.4702 34.5737 52.4702 34.211V34.1552L53.07 25.7716C53.084 25.381 53.2653 25.2136 53.6699 25.2136H54.451C54.7998 25.2136 55.023 25.381 55.1346 25.7298L57.1293 32.3418C57.8268 30.0959 58.3987 27.9617 59.0962 25.7298C59.2078 25.381 59.417 25.2136 59.7797 25.2136H60.5748C60.9654 25.2136 61.1607 25.381 61.1747 25.7716L61.7326 34.1552H61.7466Z" fill="black"/>
</svg>
