<svg width="134" height="48" viewBox="0 0 134 48" fill="none" xmlns="http://www.w3.org/2000/svg">
<path d="M58.8838 13.2715V16.4529C58.8838 16.9174 58.9535 17.2425 59.116 17.4515C59.3482 17.7533 59.6501 17.9159 60.0449 17.9159C60.4397 17.9159 60.7648 17.7533 60.9738 17.4515C61.1131 17.2425 61.206 16.9174 61.206 16.4529V13.2715H61.9955V16.6851C61.9955 17.2425 61.8098 17.7069 61.4847 18.0552C61.0899 18.45 60.6254 18.659 60.0449 18.659C59.4643 18.659 58.9999 18.45 58.6051 18.0552C58.2568 17.6837 58.0942 17.2425 58.0942 16.6851V13.2715H58.8838Z" fill="#005496"/>
<path d="M63.3889 18.5661V12.8999L67.2438 16.9405V13.2715H68.0333V18.8912L64.1785 14.8506V18.5661H63.3889Z" fill="#005496"/>
<path d="M70.1929 13.2715H69.4033V18.5661H70.1929V13.2715Z" fill="#005496"/>
<path d="M71.8649 13.2715L73.3279 16.9406L74.7908 13.2715H75.6733L73.3046 18.9609L70.9824 13.2715H71.8649Z" fill="#005496"/>
<path d="M79.3657 14.0146H77.2292V15.2918H79.296V16.0349H77.2292V17.7998H79.3657V18.5661H76.4397V13.2715H79.3657V14.0146Z" fill="#005496"/>
<path d="M82.3149 16.3136L83.9637 18.5661H82.9884L81.4789 16.4065H81.3396V18.5661H80.55V13.2715H81.4789C82.1756 13.2715 82.6865 13.4108 82.9884 13.6663C83.3367 13.9681 83.4992 14.3397 83.4992 14.8274C83.4992 15.315 83.3831 15.524 83.1741 15.8027C82.9651 16.0814 82.6865 16.2439 82.3149 16.3136ZM81.3164 15.7098H81.5718C82.3381 15.7098 82.7097 15.4311 82.7097 14.8506C82.7097 14.27 82.3381 14.0378 81.595 14.0378H81.3164V15.7098Z" fill="#005496"/>
<path d="M87.8416 14.0609L87.1914 14.4557C87.0753 14.2467 86.9592 14.1073 86.8431 14.0377C86.727 13.968 86.5876 13.9216 86.4019 13.9216C86.2161 13.9216 86.0071 13.9912 85.8445 14.1073C85.7052 14.2235 85.6355 14.386 85.6355 14.5718C85.6355 14.7576 85.8213 15.0362 86.2161 15.1988L86.7502 15.4078C87.1682 15.5703 87.4933 15.8026 87.7023 16.0348C87.9113 16.2902 88.0042 16.5921 88.0042 16.9637C88.0042 17.3352 87.8416 17.8461 87.5165 18.1712C87.1914 18.4963 86.7734 18.6589 86.309 18.6589C85.8445 18.6589 85.473 18.5195 85.1711 18.2409C84.8692 17.9622 84.6834 17.5907 84.6138 17.103L85.4265 16.9172C85.473 17.2191 85.5194 17.4513 85.6123 17.5674C85.7749 17.7997 86.0071 17.9158 86.3322 17.9158C86.6573 17.9158 86.7966 17.8229 86.9592 17.6603C87.1218 17.4978 87.2146 17.2888 87.2146 17.0333C87.2146 16.7779 87.2146 16.8476 87.1682 16.7547C87.145 16.6618 87.0985 16.5921 87.0289 16.5224C86.9592 16.4528 86.8895 16.3831 86.7966 16.3134C86.7038 16.2438 86.5876 16.1973 86.4483 16.1277L85.9374 15.9187C85.2175 15.6168 84.846 15.1756 84.846 14.5718C84.846 13.968 85.0085 13.8519 85.3104 13.5732C85.6123 13.2946 85.9839 13.1785 86.4483 13.1785C86.9128 13.1785 87.5398 13.4804 87.8881 14.0609" fill="#005496"/>
<path d="M89.8389 13.2715H89.0493V18.5661H89.8389V13.2715Z" fill="#005496"/>
<path d="M91.2088 18.5661V13.2715H92.3234C92.8575 13.2715 93.2755 13.3179 93.5774 13.434C93.9025 13.5269 94.2044 13.7127 94.4831 13.9681C95.0404 14.4558 95.2959 15.1292 95.2959 15.942C95.2959 16.7548 95.0172 17.405 94.4366 17.9159C94.158 18.1713 93.8561 18.3339 93.531 18.45C93.2291 18.5429 92.8343 18.5893 92.277 18.5893H91.1855L91.2088 18.5661ZM92.0215 17.7998H92.3699C92.7182 17.7998 93.0201 17.7533 93.2755 17.6837C93.5078 17.614 93.7168 17.4747 93.9258 17.3121C94.3205 16.9638 94.5063 16.4761 94.5063 15.9188C94.5063 15.3615 94.3205 14.8738 93.9258 14.5023C93.5774 14.1771 93.0665 14.0146 92.3699 14.0146H92.0215V17.7998Z" fill="#005496"/>
<path d="M99.2668 17.2656H96.991L96.4105 18.5428H95.5513L98.1754 12.9231L100.707 18.5428H99.8241L99.2668 17.2656ZM98.9417 16.5225L98.1521 14.7344L97.3394 16.5225H98.9417Z" fill="#005496"/>
<path d="M101.473 18.5661V13.2715H102.588C103.122 13.2715 103.54 13.3179 103.842 13.434C104.167 13.5269 104.469 13.7127 104.747 13.9681C105.305 14.4558 105.56 15.1292 105.56 15.942C105.56 16.7548 105.281 17.405 104.701 17.9159C104.422 18.1713 104.12 18.3339 103.795 18.45C103.493 18.5429 103.098 18.5893 102.541 18.5893H101.45L101.473 18.5661ZM102.262 17.7998H102.611C102.959 17.7998 103.261 17.7533 103.516 17.6837C103.749 17.614 103.958 17.4747 104.167 17.3121C104.561 16.9638 104.747 16.4761 104.747 15.9188C104.747 15.3615 104.561 14.8738 104.167 14.5023C103.818 14.1771 103.307 14.0146 102.611 14.0146H102.262V17.7998Z" fill="#005496"/>
<path d="M58.094 26.508V21.2134H59.2087C59.7428 21.2134 60.1608 21.2598 60.4627 21.3759C60.7878 21.4688 61.0897 21.6546 61.3683 21.91C61.9257 22.3977 62.1811 23.0711 62.1811 23.8839C62.1811 24.6967 61.9024 25.3469 61.3219 25.8578C61.0432 26.1132 60.7413 26.2758 60.4162 26.3919C60.1143 26.4848 59.7196 26.5312 59.1622 26.5312H58.0708L58.094 26.508ZM58.8836 25.7649H59.2319C59.5802 25.7649 59.8821 25.7185 60.1376 25.6488C60.3698 25.5791 60.5788 25.4398 60.7878 25.2772C61.1826 24.9289 61.3683 24.4412 61.3683 23.8839C61.3683 23.3266 61.1826 22.8389 60.7878 22.4674C60.4395 22.1423 59.9286 21.9797 59.2319 21.9797H58.8836V25.7649Z" fill="#005496"/>
<path d="M66.1059 21.9797H63.9927V23.2569H66.0362V24H63.9927V25.7649H66.1059V26.508H63.1799V21.2134H66.1059V21.9797Z" fill="#005496"/>
<path d="M69.4961 21.2134V25.7649H71.052V26.508H68.7065V21.2134H69.4961Z" fill="#005496"/>
<path d="M75.2089 25.2307H72.9332L72.3526 26.5079H71.4934L74.1175 20.8882L76.6487 26.5079H75.7663L75.2089 25.2307ZM74.8838 24.4876L74.0943 22.6995L73.2815 24.4876H74.8838Z" fill="#005496"/>
<path d="M80.3179 24.2555L81.9666 26.508H80.9913L79.4819 24.3484H79.3425V26.508H78.553V21.2134H79.4819C80.1785 21.2134 80.6894 21.3527 80.9913 21.6081C81.3396 21.91 81.5022 22.2816 81.5022 22.7693C81.5022 23.2569 81.3861 23.4659 81.1771 23.7446C80.9681 24.0232 80.6894 24.1858 80.3179 24.2555ZM79.3193 23.6517H79.5747C80.3411 23.6517 80.7126 23.373 80.7126 22.7925C80.7126 22.2119 80.3411 21.9797 79.598 21.9797H79.3193V23.6517Z" fill="#005496"/>
<path d="M85.6821 21.9797H83.5457V23.2569H85.6124V24H83.5457V25.7649H85.6821V26.508H82.7561V21.2134H85.6821V21.9797Z" fill="#005496"/>
<path d="M87.5166 24.3716V26.5312H86.7271V21.2366H87.6327C88.0739 21.2366 88.4223 21.2598 88.6313 21.3295C88.8635 21.3991 89.0493 21.5152 89.235 21.6778C89.5369 21.9797 89.6995 22.3512 89.6995 22.7924C89.6995 23.2337 89.5369 23.6517 89.2118 23.9535C88.8867 24.2322 88.4455 24.3716 87.8882 24.3716H87.5166ZM87.5166 23.6284H87.8185C88.5616 23.6284 88.9099 23.3498 88.9099 22.7924C88.9099 22.2351 88.5384 21.9797 87.772 21.9797H87.5166V23.6517V23.6284Z" fill="#005496"/>
<path d="M91.3018 21.2133V24.3947C91.3018 24.8592 91.3714 25.1843 91.534 25.3933C91.7662 25.6952 92.0681 25.8577 92.4629 25.8577C92.8576 25.8577 93.1827 25.6952 93.3917 25.3933C93.5311 25.1843 93.624 24.8592 93.624 24.3947V21.2133H94.4135V24.6269C94.4135 25.1843 94.251 25.6487 93.9026 25.997C93.5079 26.3918 93.0434 26.6008 92.4629 26.6008C91.8823 26.6008 91.4179 26.3918 91.0231 25.997C90.6748 25.6255 90.5122 25.1843 90.5122 24.6269V21.2133H91.3018ZM93.6704 19.7967L92.2771 20.7489L91.9055 20.4237L92.997 19.3091L93.6704 19.7967Z" fill="#005496"/>
<path d="M95.6907 26.508V21.2134H96.4803C96.8286 21.2134 97.1072 21.2366 97.3162 21.3063C97.5252 21.3527 97.711 21.4456 97.8504 21.5849C97.9897 21.7243 98.1058 21.8868 98.1987 22.0958C98.2916 22.3048 98.338 22.5138 98.338 22.7228C98.338 23.0944 98.1987 23.4195 97.8968 23.6749C98.1755 23.7678 98.4077 23.9304 98.5702 24.1858C98.7328 24.418 98.8257 24.6967 98.8257 25.0218C98.8257 25.3469 98.6863 25.7881 98.3845 26.0668C98.1987 26.2526 98.0129 26.3687 97.7807 26.4383C97.5485 26.508 97.2466 26.5312 96.875 26.5312H95.6675L95.6907 26.508ZM96.5035 23.4891H96.7589C97.0608 23.4891 97.2698 23.4195 97.4091 23.3034C97.5485 23.164 97.6181 22.9783 97.6181 22.7228C97.6181 22.4674 97.5485 22.2816 97.4091 22.1655C97.2698 22.0262 97.0608 21.9797 96.7821 21.9797H96.5035V23.5124V23.4891ZM96.5035 25.7649H96.9911C97.3627 25.7649 97.6181 25.6952 97.7807 25.5559C97.9665 25.3933 98.0593 25.2076 98.0593 24.9753C98.0593 24.7431 97.9665 24.5574 97.8039 24.3948C97.6414 24.2322 97.3395 24.1626 96.8982 24.1626H96.5035V25.7649Z" fill="#005496"/>
<path d="M100.637 21.2134V25.7649H102.193V26.508H99.8477V21.2134H100.637Z" fill="#005496"/>
<path d="M103.749 21.2134H102.959V26.508H103.749V21.2134Z" fill="#005496"/>
<path d="M108.951 21.4224V22.3745C108.486 21.9797 108.022 21.7939 107.511 21.7939C107 21.7939 106.512 21.9797 106.141 22.3745C105.769 22.7692 105.583 23.2337 105.583 23.791C105.583 24.3483 105.769 24.8128 106.141 25.1843C106.512 25.5559 106.977 25.7649 107.511 25.7649C108.045 25.7649 108.022 25.7184 108.231 25.6256C108.347 25.5791 108.463 25.5094 108.579 25.4398C108.695 25.3701 108.811 25.2772 108.951 25.1611V26.1364C108.486 26.3919 108.022 26.5312 107.511 26.5312C106.745 26.5312 106.118 26.2758 105.583 25.7417C105.049 25.2076 104.794 24.5573 104.794 23.8142C104.794 23.0711 105.026 22.537 105.467 22.0029C106.025 21.3527 106.721 21.0276 107.604 21.0276C108.486 21.0276 108.533 21.1669 108.974 21.4224" fill="#005496"/>
<path d="M113.177 25.1379H110.901L110.321 26.4152H109.461L112.086 20.7954L114.617 26.4152H113.734L113.177 25.1379ZM112.852 24.3948L112.062 22.6067L111.25 24.3948H112.852Z" fill="#005496"/>
<path d="M58.8838 29.1785V32.3599C58.8838 32.8243 58.9535 33.1494 59.116 33.3584C59.3482 33.6603 59.6501 33.8229 60.0449 33.8229C60.4397 33.8229 60.7648 33.6603 60.9738 33.3584C61.1131 33.1494 61.206 32.8243 61.206 32.3599V29.1785H61.9955V32.5921C61.9955 33.1494 61.8098 33.6139 61.4847 33.9622C61.0899 34.357 60.6254 34.566 60.0449 34.566C59.4643 34.566 58.9999 34.357 58.6051 33.9622C58.2568 33.5907 58.0942 33.1494 58.0942 32.5921V29.1785H58.8838Z" fill="#005496"/>
<path d="M65.27 32.2206L66.9188 34.4731H65.9434L64.434 32.3134H64.2947V34.4731H63.5051V29.1785H64.434C65.1307 29.1785 65.6416 29.3178 65.9434 29.5732C66.2918 29.8751 66.4543 30.2467 66.4543 30.7343C66.4543 31.222 66.3382 31.431 66.1292 31.7097C65.9202 31.9883 65.6416 32.1509 65.27 32.2206ZM64.2947 31.6168H64.5501C65.3164 31.6168 65.688 31.3381 65.688 30.7576C65.688 30.177 65.3164 29.9448 64.5733 29.9448H64.2947V31.6168Z" fill="#005496"/>
<path d="M68.6372 29.1785V32.3599C68.6372 32.8243 68.7069 33.1494 68.8694 33.3584C69.1016 33.6603 69.4035 33.8229 69.7983 33.8229C70.1931 33.8229 70.5182 33.6603 70.7272 33.3584C70.8665 33.1494 70.9594 32.8243 70.9594 32.3599V29.1785H71.749V32.5921C71.749 33.1494 71.5864 33.6139 71.2381 33.9622C70.8433 34.357 70.3789 34.566 69.7983 34.566C69.2178 34.566 68.7533 34.357 68.3585 33.9622C68.0102 33.5907 67.8477 33.1494 67.8477 32.5921V29.1785H68.6372Z" fill="#005496"/>
<path d="M75.9519 31.7098H78.1348V31.8956C78.1348 32.2904 78.0884 32.6387 77.9955 32.9406C77.9026 33.2193 77.74 33.4979 77.531 33.7301C77.0434 34.2875 76.4164 34.5661 75.6501 34.5661C74.8837 34.5661 74.28 34.3107 73.7458 33.7534C73.2117 33.2193 72.9563 32.569 72.9563 31.8259C72.9563 31.0828 73.235 30.4094 73.7691 29.8753C74.3032 29.3412 74.9534 29.0625 75.7197 29.0625C76.4861 29.0625 76.5093 29.1554 76.8808 29.3179C77.2292 29.4805 77.5543 29.7592 77.9026 30.1307L77.3453 30.6648C76.904 30.0843 76.3932 29.8056 75.7662 29.8056C75.1392 29.8056 74.7444 29.9914 74.3496 30.3862C73.9781 30.7577 73.7691 31.2454 73.7691 31.8027C73.7691 32.36 73.9781 32.8709 74.3961 33.2657C74.7908 33.614 75.2088 33.7998 75.6733 33.7998C76.1377 33.7998 76.4164 33.6605 76.7415 33.405C77.0434 33.1496 77.2292 32.8245 77.2756 32.4529H75.9519V31.7098Z" fill="#005496"/>
<path d="M80.155 29.1785V32.3599C80.155 32.8243 80.2247 33.1494 80.3872 33.3584C80.6195 33.6603 80.9214 33.8229 81.3161 33.8229C81.7109 33.8229 82.036 33.6603 82.245 33.3584C82.3843 33.1494 82.4772 32.8243 82.4772 32.3599V29.1785H83.2668V32.5921C83.2668 33.1494 83.1042 33.6139 82.7559 33.9622C82.3611 34.357 81.8967 34.566 81.3161 34.566C80.7356 34.566 80.2711 34.357 79.8764 33.9622C79.528 33.5907 79.3655 33.1494 79.3655 32.5921V29.1785H80.155Z" fill="#005496"/>
<path d="M87.6328 33.196H85.357L84.7764 34.4733H83.9172L86.5413 28.8535L89.0725 34.4733H88.1901L87.6328 33.196ZM87.3077 32.4297L86.5181 30.6416L85.7053 32.4297H87.3077Z" fill="#005496"/>
<path d="M90.5585 32.1741L88.8169 29.1785H89.7458L90.9533 31.2917L92.1609 29.1785H93.0898L91.3481 32.1741V34.4731H90.5585V32.1741Z" fill="#005496"/>
<path d="M28.4397 37.91V38.119H28.8345V37.91V37.8635H28.4397V37.91Z" fill="#005496"/>
<path d="M28.8345 37.074H28.4397V37.3294H28.8345V37.074Z" fill="#005496"/>
<path d="M30.1811 34.9375H29.856L30.0185 35.6342L30.1811 35.7038L30.3204 35.6342L30.483 34.9375H30.1811Z" fill="#005496"/>
<path d="M32.0854 38.6995H31.5049V38.9549H32.0854V38.6995Z" fill="#005496"/>
<path d="M32.0854 37.8635H31.5049V38.119H32.0854V37.8635Z" fill="#005496"/>
<path d="M32.0854 37.074H31.5049V37.3294H32.0854V37.074Z" fill="#005496"/>
<path d="M33.4323 34.9375H33.1304L33.2929 35.6342L33.4323 35.7038L33.5948 35.6342L33.7574 34.9375H33.4323Z" fill="#005496"/>
<path d="M35.3598 38.6995H34.7793V38.9549H35.3598V38.6995Z" fill="#005496"/>
<path d="M35.3598 37.8635H34.7793V38.119H35.3598V37.8635Z" fill="#005496"/>
<path d="M35.3598 37.074H34.7793V37.3294H35.3598V37.074Z" fill="#005496"/>
<path d="M36.7067 34.9375H36.4048L36.5441 35.6342L36.7067 35.7038L36.8692 35.6342L37.0086 34.9375H36.7067Z" fill="#005496"/>
<path d="M38.0537 37.91V38.119H38.4485V37.91V37.8635H38.0537V37.91Z" fill="#005496"/>
<path d="M38.4485 37.074H38.0537V37.3294H38.4485V37.074Z" fill="#005496"/>
<path d="M42.5355 31.8955H41.6995V32.0348H42.5355V31.8955Z" fill="#005496"/>
<path d="M42.5355 32.7314H41.6995V32.8708H42.5355V32.7314Z" fill="#005496"/>
<path d="M42.5355 31.0364H41.6995V31.1757H42.5355V31.0364Z" fill="#005496"/>
<path d="M42.5355 30.2002H41.6995V30.3395H42.5355V30.2002Z" fill="#005496"/>
<path d="M42.5355 29.3643H41.6995V29.5036H42.5355V29.3643Z" fill="#005496"/>
<path d="M42.5355 28.5051H41.6995V28.6445H42.5355V28.5051Z" fill="#005496"/>
<path d="M41.3741 29.3643H40.0969V32.8708H41.3741V29.3643Z" fill="#005496"/>
<path d="M39.7952 31.8955H38.9592V32.0348H39.7952V31.8955Z" fill="#005496"/>
<path d="M39.7952 32.7314H38.9592V32.8708H39.7952V32.7314Z" fill="#005496"/>
<path d="M39.7952 31.0364H38.9592V31.1757H39.7952V31.0364Z" fill="#005496"/>
<path d="M39.7952 30.2002H38.9592V30.3395H39.7952V30.2002Z" fill="#005496"/>
<path d="M39.7952 29.3643H38.9592V29.5036H39.7952V29.3643Z" fill="#005496"/>
<path d="M39.7952 28.5051H38.9592V28.6445H39.7952V28.5051Z" fill="#005496"/>
<path d="M37.7284 33.312H35.6848V33.7068H37.7284V33.312Z" fill="#005496"/>
<path d="M37.3339 29.7358H36.0566V33.103H37.3339V29.7358Z" fill="#005496"/>
<path d="M32.4104 33.312V33.7068H34.4539V33.312H33.4322H32.4104Z" fill="#005496"/>
<path d="M34.0824 33.1263V29.7358H33.4322H32.8052V33.1263H33.4322H34.0824Z" fill="#005496"/>
<path d="M31.1798 33.312H29.1362V33.7068H31.1798V33.312Z" fill="#005496"/>
<path d="M30.8085 29.7358H29.5312V33.103H30.8085V29.7358Z" fill="#005496"/>
<path d="M27.9288 31.8955H27.0928V32.0348H27.9288V31.8955Z" fill="#005496"/>
<path d="M27.9288 32.7314H27.0928V32.8708H27.9288V32.7314Z" fill="#005496"/>
<path d="M27.9288 31.0364H27.0928V31.1757H27.9288V31.0364Z" fill="#005496"/>
<path d="M27.9288 30.2002H27.0928V30.3395H27.9288V30.2002Z" fill="#005496"/>
<path d="M27.9288 29.3643H27.0928V29.5036H27.9288V29.3643Z" fill="#005496"/>
<path d="M27.9288 28.5051H27.0928V28.6445H27.9288V28.5051Z" fill="#005496"/>
<path d="M26.7677 29.3643H25.4905V32.8708H26.7677V29.3643Z" fill="#005496"/>
<path d="M25.1653 31.0364H24.3293V31.1757H25.1653V31.0364Z" fill="#005496"/>
<path d="M25.1653 31.8955H24.3293V32.0348H25.1653V31.8955Z" fill="#005496"/>
<path d="M25.1653 30.2002H24.3293V30.3395H25.1653V30.2002Z" fill="#005496"/>
<path d="M25.1653 29.3643H24.3293V29.5036H25.1653V29.3643Z" fill="#005496"/>
<path d="M25.1653 28.5051H24.3293V28.6445H25.1653V28.5051Z" fill="#005496"/>
<path d="M25.1653 32.7314H24.3293V32.8708H25.1653V32.7314Z" fill="#005496"/>
<path d="M30.1347 22.212C30.5294 22.212 30.8313 21.8869 30.8313 21.4921C30.8313 21.0973 30.5062 20.7722 30.1347 20.7722C29.7631 20.7722 29.438 21.0973 29.438 21.4921C29.438 21.8869 29.7631 22.212 30.1347 22.212Z" fill="#005496"/>
<path d="M33.4323 22.212C33.827 22.212 34.1289 21.8869 34.1289 21.4921C34.1289 21.0973 33.8038 20.7722 33.4323 20.7722C33.0607 20.7722 32.7356 21.0973 32.7356 21.4921C32.7356 21.8869 33.0607 22.212 33.4323 22.212Z" fill="#005496"/>
<path d="M36.7299 22.212C37.1246 22.212 37.4265 21.8869 37.4265 21.4921C37.4265 21.0973 37.1014 20.7722 36.7299 20.7722C36.3583 20.7722 36.0332 21.0973 36.0332 21.4921C36.0332 21.8869 36.3583 22.212 36.7299 22.212Z" fill="#005496"/>
<path d="M28.3698 25.0682H28.3234C27.7893 24.4412 26.9997 24.0232 26.1173 24.0232C25.2348 24.0232 24.4453 24.418 23.9112 25.0682H23.8647V25.3236H28.3466V25.0682H28.3698Z" fill="#005496"/>
<path d="M38.4484 23.5125V23.1177H33.4324H28.4397V23.5125H33.4324H38.4484Z" fill="#005496"/>
<path d="M29.1364 24.627H33.4324H37.7285V24.3019H38.4484V23.9768H28.4397V24.3019H29.1364V24.627Z" fill="#005496"/>
<path d="M37.7284 25.0681H29.1362V25.3236H37.7284V25.0681Z" fill="#005496"/>
<path d="M38.9592 25.8578H27.9288V25.5327H24.3293V25.8578V26.1133V26.299H28.4397V26.7635H38.4484V26.299H42.5354V26.1133V25.8578V25.5327H38.9592V25.8578Z" fill="#005496"/>
<path d="M24.3291 27.4833H25.3509V28.0639H25.4902C25.6296 28.2496 25.8618 28.389 26.1172 28.389C26.3727 28.389 26.6049 28.2729 26.7442 28.0639H26.8836V27.4833H27.9053V26.9724H24.3059V27.4833H24.3291Z" fill="#005496"/>
<path d="M38.9593 27.4833H39.981V28.0639H40.1204C40.2597 28.2496 40.4919 28.389 40.7474 28.389C41.0028 28.389 41.235 28.2729 41.3744 28.0639H41.5137V27.4833H42.5355V26.9724H38.936V27.4833H38.9593Z" fill="#005496"/>
<path d="M30.1581 27.9013C30.4136 27.9013 30.6226 28.1103 30.6226 28.3658C30.6226 28.6212 30.4136 28.8302 30.1581 28.8302C29.9027 28.8302 29.6937 28.6212 29.6937 28.3658C29.6937 28.1103 29.9027 27.9013 30.1581 27.9013ZM28.4397 27.9245H29.7169C29.6705 27.971 29.6472 28.0174 29.624 28.0639H29.1596V28.7838H29.6705C29.7866 28.9463 29.9724 29.0392 30.1814 29.0392C30.3904 29.0392 30.5761 28.9463 30.6922 28.7838H31.2031V28.0639H30.7387C30.7155 28.0174 30.669 27.971 30.6458 27.9245H32.5268C32.6893 27.5762 33.0377 27.344 33.4557 27.344H28.4629V27.9245H28.4397Z" fill="#005496"/>
<path d="M36.7067 27.9013C36.9621 27.9013 37.1711 28.1103 37.1711 28.3658C37.1711 28.6212 36.9621 28.8302 36.7067 28.8302C36.4512 28.8302 36.2422 28.6212 36.2422 28.3658C36.2422 28.1103 36.4512 27.9013 36.7067 27.9013ZM34.3612 27.9245H36.2422C36.1958 27.971 36.1725 28.0174 36.1493 28.0639H35.6849V28.7838H36.1958C36.3119 28.9463 36.4977 29.0392 36.7067 29.0392C36.9157 29.0392 37.1014 28.9463 37.2175 28.7838H37.7284V28.0639H37.264C37.2408 28.0174 37.1943 27.971 37.1711 27.9245H38.4483V27.344H33.4556C33.8503 27.344 34.2219 27.5762 34.3844 27.9245" fill="#005496"/>
<path d="M32.1553 28.064V28.7839H32.4804C32.4339 28.6677 32.4107 28.5284 32.4107 28.3891C32.4107 28.2497 32.4107 28.1569 32.4572 28.064H32.1553Z" fill="#005496"/>
<path d="M34.4539 28.3891C34.4539 28.5284 34.4307 28.6677 34.3843 28.7839H34.7094V28.064H34.4075C34.4307 28.1569 34.4539 28.273 34.4539 28.3891Z" fill="#005496"/>
<path d="M34.0826 28.389C34.0826 28.2032 34.0129 28.0407 33.8968 27.9246L33.5021 28.4122C33.4788 28.4122 33.4324 28.4122 33.4092 28.4122C33.4092 28.4122 33.4092 28.4122 33.4092 28.389L33.2002 28.0639L33.4788 28.2497L33.9433 27.9013C33.8272 27.7852 33.6646 27.7156 33.4788 27.7156C33.1305 27.7156 32.8286 28.0175 32.8286 28.3658C32.8286 28.7141 33.1073 29.016 33.4788 29.016C33.8504 29.016 34.129 28.7141 34.129 28.3658" fill="#005496"/>
<path d="M29.1362 29.4804H31.203V29.2946V29.1553H29.1362V29.4804Z" fill="#005496"/>
<path d="M33.4322 29.4107C33.1767 29.4107 32.9445 29.3178 32.7587 29.1553H32.4104V29.4804H34.4539V29.1553H34.1056C33.9198 29.3178 33.6876 29.4107 33.4322 29.4107Z" fill="#005496"/>
<path d="M37.7284 29.1553H35.6848V29.4804H37.7284V29.1553Z" fill="#005496"/>
<path d="M29.8562 35.3555L29.8098 35.1001C29.0435 35.2627 28.4397 35.9825 28.4397 36.8185H28.9506C28.9506 36.238 29.3686 35.7271 29.9027 35.611V35.4949C29.8795 35.4949 29.8562 35.3788 29.8562 35.3788V35.3555Z" fill="#005496"/>
<path d="M33.0841 35.2162V35.1001C32.4571 35.2394 31.9926 35.6574 31.8069 36.238C31.6211 35.6806 31.1334 35.2394 30.5529 35.1001V35.2162C30.5297 35.2162 30.4368 35.611 30.4368 35.611C30.9941 35.7271 31.3889 36.2148 31.3889 36.8185H32.2249C32.2249 36.238 32.6429 35.7271 33.177 35.611L33.0841 35.2162Z" fill="#005496"/>
<path d="M36.335 35.1001C35.7545 35.2394 35.2668 35.6574 35.081 36.238C34.8953 35.6806 34.4076 35.2394 33.827 35.1001V35.2162C33.8038 35.2162 33.7109 35.611 33.7109 35.611C34.2683 35.7271 34.663 36.2148 34.663 36.8185H35.499C35.499 36.238 35.917 35.7271 36.4511 35.611L36.3583 35.2162V35.1001H36.335Z" fill="#005496"/>
<path d="M37.0783 35.1001V35.2162C37.055 35.2162 36.9622 35.611 36.9622 35.611C37.5195 35.7271 37.9143 36.2148 37.9143 36.8185H38.4251C38.4251 35.9825 37.8446 35.2859 37.055 35.1001" fill="#005496"/>
<path d="M31.4583 38.3977C31.4583 38.3977 31.4351 38.3977 31.4351 38.4209C31.4351 38.4442 31.4351 38.4441 31.4583 38.4441C31.4815 38.4441 31.4815 38.4442 31.4815 38.4209C31.4815 38.3977 31.4815 38.3977 31.4583 38.3977Z" fill="#005496"/>
<path d="M31.6443 38.4673C31.6443 38.4673 31.6443 38.4441 31.6211 38.4441C31.5979 38.4441 31.5979 38.4441 31.5979 38.4673C31.5979 38.4905 31.5979 38.4905 31.6211 38.4905C31.6443 38.4905 31.6443 38.4905 31.6443 38.4673Z" fill="#005496"/>
<path d="M31.8301 38.3513C31.8301 38.3513 31.8301 38.3281 31.8069 38.3281C31.7837 38.3281 31.7837 38.3281 31.7837 38.3513C31.7837 38.3746 31.7837 38.3746 31.8069 38.3746C31.8301 38.3746 31.8301 38.3746 31.8301 38.3513Z" fill="#005496"/>
<path d="M31.6443 17.939H31.2031V18.4034H31.6443V17.939Z" fill="#005496"/>
<path d="M32.2249 17.939H31.7837V18.4034H32.2249V17.939Z" fill="#005496"/>
<path d="M33.3626 17.939H32.9214V18.4034H33.3626V17.939Z" fill="#005496"/>
<path d="M33.9432 17.939H33.502V18.4034H33.9432V17.939Z" fill="#005496"/>
<path d="M32.7823 17.939H32.3411V18.4034H32.7823V17.939Z" fill="#005496"/>
<path d="M31.0638 17.939H30.6226V18.4034H31.0638V17.939Z" fill="#005496"/>
<path d="M29.3221 17.939H28.8809V18.4034H29.3221V17.939Z" fill="#005496"/>
<path d="M29.9026 17.939H29.4614V18.4034H29.9026V17.939Z" fill="#005496"/>
<path d="M30.4832 17.939H30.042V18.4034H30.4832V17.939Z" fill="#005496"/>
<path d="M37.9837 17.939H37.5425V18.4034H37.9837V17.939Z" fill="#005496"/>
<path d="M37.4034 17.939H36.9622V18.4034H37.4034V17.939Z" fill="#005496"/>
<path d="M36.8226 17.939H36.3813V18.4034H36.8226V17.939Z" fill="#005496"/>
<path d="M47.4818 25.672V8H19.3831V25.9507C19.3831 26.0668 19.3831 26.2758 19.3831 26.2758C19.6385 33.8926 25.8156 40 33.4092 40C41.0028 40 47.3656 33.73 47.4585 25.9739V25.7649C47.4585 25.672 47.4585 25.7649 47.4585 25.672M28.4397 18.6357L28.7648 18.3106V17.2656H28.9041V17.7765H38.0071V17.2656H38.1465V18.3106L38.4716 18.6357V19.0305H28.4629V18.6357H28.4397ZM20.3584 28.7605H23.7488V29.225H20.4513C20.4048 29.0856 20.3816 28.9231 20.3352 28.7605M42.9302 35.3324H38.7038V35.7271H42.6051C42.1871 36.1219 41.7459 36.4935 41.2815 36.8186H38.727V37.2134H40.7241C39.8185 37.8171 38.8199 38.3048 37.7749 38.6531V36.8186C37.7749 36.238 37.3105 35.7736 36.7532 35.7736C36.1958 35.7736 35.7314 36.238 35.7314 36.8186V39.164C35.3366 39.2569 34.9186 39.3033 34.5238 39.3266V36.8186C34.5238 36.238 34.0594 35.7736 33.5021 35.7736C32.9447 35.7736 32.4803 36.238 32.4803 36.8186V39.3033C32.0623 39.3033 31.6675 39.2337 31.2728 39.164V36.7954C31.2728 36.2148 30.8083 35.7504 30.251 35.7504C29.6937 35.7504 29.2292 36.2148 29.2292 36.7954V38.6067C28.1842 38.2583 27.1857 37.7707 26.28 37.1669H28.2539V36.7721H25.6995C25.235 36.4238 24.7938 36.0755 24.3758 35.6807H28.2771V35.2859H24.0507V34.2409H28.5326V34.4267H38.5413V34.2409H43.0231V35.2859L42.9302 35.3324ZM46.4135 29.225H43.116V28.7605H46.5064C46.4832 28.9231 46.4368 29.0624 46.3903 29.225M46.7619 27.2046H42.9302V27.4601H46.7386C46.7386 27.6226 46.6922 27.762 46.669 27.9245H42.9302V33.1263H43.116V29.434H46.3439C46.2742 29.643 46.2278 29.8752 46.1581 30.0842H45.415V31.8723C45.2524 32.1974 45.0899 32.5225 44.9041 32.8244V30.0842H43.743V33.1263H44.6951C44.4861 33.4514 44.2539 33.7765 44.0217 34.1016H42.907V33.7068H38.6806V33.9623H28.161V33.7068H23.9346V34.1016H22.8199C22.5877 33.7765 22.3555 33.4746 22.1465 33.1263H23.0986V30.0842H21.9375V32.8244C21.7517 32.5225 21.5892 32.1974 21.4266 31.8723V30.0842H20.6835C20.6138 29.8752 20.5442 29.6662 20.4977 29.434H23.7256V33.1263H23.9114V27.9245H20.1726C20.1494 27.7852 20.1262 27.6226 20.1029 27.4601H23.9114V27.2046H20.0797C20.0797 27.0421 20.0565 26.8563 20.0333 26.6938H23.9114V25.5327H23.4005V24.9521H23.7488C23.9114 24.7663 24.0971 24.5806 24.3061 24.4412V23.5356H25.3279C25.5601 23.6749 25.8156 23.7446 26.0942 23.7446C26.3729 23.7446 26.6283 23.6749 26.8606 23.5356H28.2771V23.1408H27.325V22.955H24.8867V23.1408H23.9346V22.4209H24.3294C24.3758 20.7721 26.1407 19.4485 28.3236 19.4485H38.518C40.7009 19.4485 42.489 20.7721 42.5122 22.4209H42.907V23.1408H41.9549V22.955H39.5166V23.1408H38.5645V23.5356H39.981C40.2132 23.6749 40.4687 23.7446 40.7474 23.7446C41.026 23.7446 41.2815 23.6749 41.5137 23.5356H42.5354V24.4412C42.7444 24.5806 42.9302 24.7663 43.0928 24.9521H43.4411V25.5327H42.9302V26.6938H46.8083C46.8083 26.8795 46.7851 27.0421 46.7619 27.2046Z" fill="#005496"/>
<path d="M36.2422 17.939H35.801V18.4034H36.2422V17.939Z" fill="#005496"/>
<path d="M34.5237 17.939H34.0825V18.4034H34.5237V17.939Z" fill="#005496"/>
<path d="M35.1043 17.939H34.6631V18.4034H35.1043V17.939Z" fill="#005496"/>
<path d="M35.6614 17.939H35.2202V18.4034H35.6614V17.939Z" fill="#005496"/>
<path d="M42.9997 25.2075V25.0682H42.9533C42.4192 24.4412 41.6296 24.0232 40.7472 24.0232C39.8647 24.0232 39.0752 24.418 38.5411 25.0682H38.4946V25.3236H42.9765V25.1843L42.9997 25.2075Z" fill="#005496"/>
</svg>
